<?xml version="1.0" encoding="utf-8"?>
<!-- Generator: Adobe Illustrator 24.1.3, SVG Export Plug-In . SVG Version: 6.00 Build 0)  -->
<svg version="1.1" xmlns="http://www.w3.org/2000/svg" xmlns:xlink="http://www.w3.org/1999/xlink" x="0px" y="0px"
	 viewBox="0 0 559.8 421.2" style="enable-background:new 0 0 559.8 421.2;" xml:space="preserve">
<style type="text/css">
	.st0{fill:#4A4DA0;}
	.st1{fill:#101010;}
	.st2{fill:#242C31;}
	.st3{fill:url(#SVGID_1_);}
	.st4{fill:url(#SVGID_2_);}
	.st5{fill:url(#SVGID_3_);}
	.st6{fill:url(#SVGID_4_);}
</style>
<g id="Ebene_1">
	<g id="subTitle">
		<path class="st0" d="M41.1,358.4H28.9l-2.6,5.9h-2.4l10.1-22h2.3l10.1,22h-2.5L41.1,358.4z M40.3,356.5L35,344.6l-5.3,11.8h10.6
			V356.5z"/>
		<path class="st0" d="M58.5,344.2v8.7h11.4v2H58.5v9.3h-2.3v-22h15.1v2H58.5z"/>
		<path class="st0" d="M84.7,344.2v8.7h11.4v2H84.7v9.3h-2.3v-22h15.1v2H84.7z"/>
		<path class="st0" d="M106.4,353.2c0-6.4,4.9-11.2,11.6-11.2c6.6,0,11.5,4.8,11.5,11.2s-4.9,11.2-11.5,11.2
			C111.3,364.4,106.4,359.6,106.4,353.2z M127.2,353.2c0-5.3-3.9-9.1-9.2-9.1c-5.3,0-9.3,3.9-9.3,9.1s4,9.1,9.3,9.1
			C123.2,362.4,127.2,358.5,127.2,353.2z"/>
		<path class="st0" d="M156,364.2l-5-7.1c-0.6,0.1-1.1,0.1-1.8,0.1h-5.9v7H141v-22h8.2c5.6,0,9,2.8,9,7.6c0,3.5-1.8,5.9-5,6.9
			l5.4,7.6H156V364.2z M155.9,349.8c0-3.5-2.3-5.5-6.7-5.5h-5.9v11h5.9C153.6,355.3,155.9,353.2,155.9,349.8z"/>
		<path class="st0" d="M170,342.2h9c7,0,11.8,4.5,11.8,11s-4.8,11-11.8,11h-9V342.2z M178.9,362.2c5.9,0,9.6-3.7,9.6-9s-3.8-9-9.6-9
			h-6.5v18H178.9z"/>
		<path class="st0" d="M215.8,358.4h-12.3l-2.6,5.9h-2.4l10.1-22h2.3l10.1,22h-2.5L215.8,358.4z M215,356.5l-5.3-11.8l-5.3,11.8H215
			z"/>
		<path class="st0" d="M249.3,358.4c0,3.7-2.8,5.9-8.3,5.9h-10.1v-22h9.5c4.9,0,7.7,2.1,7.7,5.7c0,2.5-1.4,4.2-3.4,5
			C247.6,353.5,249.3,355.4,249.3,358.4z M233.2,344.1v8h7c3.5,0,5.6-1.4,5.6-4s-2-4-5.6-4H233.2z M246.9,358.2c0-2.9-2.1-4.1-6-4.1
			h-7.8v8.3h7.8C244.8,362.3,246.9,361.1,246.9,358.2z"/>
		<path class="st0" d="M260.9,342.2h2.3v20h12.3v2h-14.7v-22H260.9z"/>
		<path class="st0" d="M301.3,362.2v2h-15.6v-22h15.1v2H288v7.8h11.4v2H288v8.2H301.3z"/>
		<path class="st0" d="M327.6,342.2h9c7,0,11.8,4.5,11.8,11s-4.8,11-11.8,11h-9V342.2z M336.4,362.2c5.9,0,9.6-3.7,9.6-9
			s-3.8-9-9.6-9h-6.5v18H336.4z"/>
		<path class="st0" d="M375.4,362.2v2h-15.6v-22h15.1v2h-12.8v7.8h11.4v2h-11.4v8.2H375.4z"/>
		<path class="st0" d="M385.1,361.6l0.9-1.8c1.6,1.5,4.4,2.7,7.3,2.7c4.1,0,5.9-1.7,5.9-3.9c0-6-13.6-2.3-13.6-10.5
			c0-3.2,2.5-6,8.1-6c2.5,0,5.1,0.7,6.8,2l-0.8,1.9c-1.9-1.2-4.1-1.8-6-1.8c-4,0-5.8,1.8-5.8,4c0,6,13.6,2.4,13.6,10.4
			c0,3.2-2.6,6-8.2,6C389.9,364.4,386.7,363.3,385.1,361.6z"/>
		<path class="st0" d="M412.8,342.2h2.3v22h-2.3V342.2z"/>
		<path class="st0" d="M444.1,353.2h2.2v8.4c-2.1,1.9-5,2.8-8.1,2.8c-6.7,0-11.6-4.8-11.6-11.2s4.9-11.2,11.6-11.2
			c3.3,0,6.2,1.1,8.2,3.2l-1.4,1.5c-1.9-1.8-4.1-2.6-6.6-2.6c-5.4,0-9.4,3.9-9.4,9.1s4,9.1,9.4,9.1c2.1,0,4.1-0.5,5.8-1.7v-7.4
			H444.1z"/>
		<path class="st0" d="M477.6,342.2v22h-1.9l-14.2-17.9v17.9h-2.3v-22h1.9l14.2,17.9v-17.9H477.6z"/>
		<path class="st0" d="M506.7,362.2v2h-15.6v-22h15.1v2h-12.8v7.8h11.4v2h-11.4v8.2H506.7z"/>
		<path class="st0" d="M533.5,364.2l-5-7.1c-0.6,0.1-1.1,0.1-1.8,0.1h-5.9v7h-2.3v-22h8.2c5.6,0,9,2.8,9,7.6c0,3.5-1.8,5.9-5,6.9
			l5.4,7.6h-2.6V364.2z M533.3,349.8c0-3.5-2.3-5.5-6.7-5.5h-5.9v11h5.9C531,355.3,533.3,353.2,533.3,349.8z"/>
		<path class="st0" d="M153.9,399.3l0.9-1.8c1.6,1.5,4.4,2.7,7.3,2.7c4.1,0,5.9-1.7,5.9-3.9c0-6-13.6-2.3-13.6-10.5
			c0-3.2,2.5-6,8.1-6c2.5,0,5.1,0.7,6.8,2l-0.8,1.9c-1.9-1.2-4.1-1.8-6-1.8c-4,0-5.8,1.8-5.8,4c0,6,13.6,2.4,13.6,10.4
			c0,3.2-2.6,6-8.2,6C158.8,402.2,155.5,401,153.9,399.3z"/>
		<path class="st0" d="M181.5,392.6V380h2.3v12.5c0,5.2,2.5,7.6,6.7,7.6c4.3,0,6.8-2.4,6.8-7.6V380h2.3v12.6c0,6.3-3.4,9.6-9,9.6
			C184.9,402.2,181.5,398.9,181.5,392.6z"/>
		<path class="st0" d="M231.3,380v22h-1.9l-14.2-17.9V402h-2.3v-22h1.9l14.2,17.9V380H231.3z"/>
		<path class="st0" d="M260.2,391h2.2v8.4c-2.1,1.9-5,2.8-8.1,2.8c-6.7,0-11.6-4.8-11.6-11.2s4.9-11.2,11.6-11.2
			c3.3,0,6.2,1.1,8.2,3.2l-1.4,1.5c-1.9-1.8-4.1-2.6-6.6-2.6c-5.4,0-9.4,3.9-9.4,9.1s4,9.1,9.4,9.1c2.1,0,4.1-0.5,5.8-1.7V391H260.2
			z"/>
		<path class="st0" d="M275.3,380h2.3v20H290v2h-14.7V380z"/>
		<path class="st0" d="M314,396.1h-12.3l-2.6,5.9h-2.4l10.1-22h2.3l10.1,22h-2.5L314,396.1z M313.2,394.2l-5.3-11.8l-5.3,11.8H313.2
			z"/>
		<path class="st0" d="M327,399.3l0.9-1.8c1.6,1.5,4.4,2.7,7.3,2.7c4.1,0,5.9-1.7,5.9-3.9c0-6-13.6-2.3-13.6-10.5c0-3.2,2.5-6,8.1-6
			c2.5,0,5.1,0.7,6.8,2l-0.8,1.9c-1.9-1.2-4.1-1.8-6-1.8c-4,0-5.8,1.8-5.8,4c0,6,13.6,2.4,13.6,10.4c0,3.2-2.6,6-8.2,6
			C331.8,402.2,328.6,401,327,399.3z"/>
		<path class="st0" d="M352.6,399.3l0.9-1.8c1.6,1.5,4.4,2.7,7.3,2.7c4.1,0,5.9-1.7,5.9-3.9c0-6-13.6-2.3-13.6-10.5
			c0-3.2,2.5-6,8.1-6c2.5,0,5.1,0.7,6.8,2l-0.8,1.9c-1.9-1.2-4.1-1.8-6-1.8c-4,0-5.8,1.8-5.8,4c0,6,13.6,2.4,13.6,10.4
			c0,3.2-2.6,6-8.2,6C357.5,402.2,354.2,401,352.6,399.3z"/>
		<path class="st0" d="M395.9,400v2h-15.6v-22h15.1v2h-12.8v7.8H394v2h-11.4v8.2H395.9z"/>
		<path class="st0" d="M405.6,399.3l0.9-1.8c1.6,1.5,4.4,2.7,7.3,2.7c4.1,0,5.9-1.7,5.9-3.9c0-6-13.6-2.3-13.6-10.5
			c0-3.2,2.5-6,8.1-6c2.5,0,5.1,0.7,6.8,2l-0.8,1.9c-1.9-1.2-4.1-1.8-6-1.8c-4,0-5.8,1.8-5.8,4c0,6,13.6,2.4,13.6,10.4
			c0,3.2-2.6,6-8.2,6C410.5,402.2,407.2,401,405.6,399.3z"/>
	</g>
	<g id="shadesTitle">
		<path class="st1" d="M55.6,310.4l3.9-8.6c4.8,3.9,12.4,6.6,19.8,6.6c9.3,0,13.3-3.3,13.3-7.8c0-12.9-35.6-4.4-35.6-26.7
			c0-9.7,7.7-17.9,24.1-17.9c7.2,0,14.7,1.9,19.9,5.3l-3.5,8.6c-5.4-3.2-11.3-4.7-16.5-4.7c-9.2,0-13,3.6-13,8.1
			c0,12.7,35.5,4.4,35.5,26.4c0,9.6-7.8,17.8-24.2,17.8C69.9,317.5,60.6,314.6,55.6,310.4z"/>
		<path class="st1" d="M184.8,256.8v59.9h-11.1V291h-31v25.7h-11.1v-59.9h11.1v24.7h31v-24.7L184.8,256.8L184.8,256.8z"/>
		<path class="st1" d="M256.9,302.8H227l-5.9,13.9h-11.5l27-59.9h11l27,59.9H263L256.9,302.8z M253.2,294.1l-11.3-26.2l-11.2,26.2
			H253.2z"/>
		<path class="st1" d="M299.2,256.8h26.2c19.4,0,32.7,12,32.7,29.9c0,18-13.3,29.9-32.7,29.9h-26.2V256.8z M324.9,307.3
			c13.3,0,22-8.1,22-20.5s-8.6-20.5-22-20.5h-14.5v41.1h14.5V307.3z"/>
		<path class="st1" d="M431.9,307.4v9.3H387v-59.9h43.7v9.3h-32.6v15.6H427v9.2h-28.9v16.5H431.9z"/>
		<path class="st1" d="M456.4,310.4l3.9-8.6c4.8,3.9,12.4,6.6,19.8,6.6c9.3,0,13.3-3.3,13.3-7.8c0-12.9-35.6-4.4-35.6-26.7
			c0-9.7,7.7-17.9,24.1-17.9c7.2,0,14.7,1.9,19.9,5.3l-3.5,8.6c-5.4-3.2-11.3-4.7-16.5-4.7c-9.2,0-13,3.6-13,8.1
			c0,12.7,35.5,4.4,35.5,26.4c0,9.6-7.8,17.8-24.2,17.8C470.7,317.5,461.4,314.6,456.4,310.4z"/>
	</g>
	<g id="darkShades">
		<path class="st2" d="M186,210c-25.1,0-48.7-9.8-66.4-27.5s-27.5-41.3-27.5-66.4s9.8-48.7,27.5-66.4s41.3-27.5,66.4-27.5h93.9V116
			c0,25.1-9.8,48.7-27.5,66.4C234.7,200.2,211.1,210,186,210z"/>
		
			<linearGradient id="SVGID_1_" gradientUnits="userSpaceOnUse" x1="146.4746" y1="690.4745" x2="293.4371" y2="837.437" gradientTransform="matrix(1 0 0 -1 -21.3371 867.337)">
			<stop  offset="0" style="stop-color:#623C97"/>
			<stop  offset="1" style="stop-color:#19ACE4"/>
		</linearGradient>
		<path class="st3" d="M272.1,116V29.9H186c-47.6,0-86.1,38.6-86.1,86.1s38.6,86.1,86.1,86.1S272.1,163.6,272.1,116z"/>
		<path class="st2" d="M467.7,116c0,25.1-9.8,48.7-27.5,66.4s-41.3,27.5-66.4,27.5s-48.7-9.8-66.4-27.5
			c-17.7-17.7-27.5-41.3-27.5-66.4V22.1h93.9c25.1,0,48.7,9.8,66.4,27.5C458,67.4,467.7,91,467.7,116z"/>
		
			<linearGradient id="SVGID_2_" gradientUnits="userSpaceOnUse" x1="1694.3319" y1="899.3441" x2="1841.2944" y2="1046.3066" gradientTransform="matrix(0 -1 -1 0 1334.0066 1871.1945)">
			<stop  offset="0" style="stop-color:#623C97"/>
			<stop  offset="1" style="stop-color:#19ACE4"/>
		</linearGradient>
		<path class="st4" d="M373.8,29.9h-86.1V116c0,47.6,38.6,86.1,86.1,86.1s86.1-38.6,86.1-86.1S421.4,29.9,373.8,29.9z"/>
	</g>
	<g id="lightShades">
		<path class="st2" d="M186,210c-25.1,0-48.7-9.8-66.4-27.5s-27.5-41.3-27.5-66.4s9.8-48.7,27.5-66.4s41.3-27.5,66.4-27.5h93.9V116
			c0,25.1-9.8,48.7-27.5,66.4C234.7,200.2,211.1,210,186,210z"/>
		
			<linearGradient id="SVGID_3_" gradientUnits="userSpaceOnUse" x1="146.4746" y1="690.4745" x2="293.4371" y2="837.437" gradientTransform="matrix(1 0 0 -1 -21.3371 867.337)">
			<stop  offset="0" style="stop-color:#46308E"/>
			<stop  offset="1" style="stop-color:#71D0F6"/>
		</linearGradient>
		<path class="st5" d="M272.1,116V29.9H186c-47.6,0-86.1,38.6-86.1,86.1s38.6,86.1,86.1,86.1S272.1,163.6,272.1,116z"/>
		<path class="st2" d="M467.7,116c0,25.1-9.8,48.7-27.5,66.4s-41.3,27.5-66.4,27.5s-48.7-9.8-66.4-27.5
			c-17.7-17.7-27.5-41.3-27.5-66.4V22.1h93.9c25.1,0,48.7,9.8,66.4,27.5C458,67.4,467.7,91,467.7,116z"/>
		
			<linearGradient id="SVGID_4_" gradientUnits="userSpaceOnUse" x1="1694.332" y1="899.3441" x2="1841.2944" y2="1046.3066" gradientTransform="matrix(0 -1 -1 0 1334.0066 1871.1945)">
			<stop  offset="0" style="stop-color:#46308E"/>
			<stop  offset="1" style="stop-color:#71D0F6"/>
		</linearGradient>
		<path class="st6" d="M373.8,29.9h-86.1V116c0,47.6,38.6,86.1,86.1,86.1s86.1-38.6,86.1-86.1S421.4,29.9,373.8,29.9z"/>
	</g>
</g>
</svg>
